<svg width="140" height="40" viewBox="0 0 140 40" fill="none" xmlns="http://www.w3.org/2000/svg">
  <!-- Green Turtle Symbol -->
  <path d="M20 8c-6.6 0-12 5.4-12 12s5.4 12 12 12c4.4 0 8.3-2.4 10.4-6 .5-.9.2-2-.7-2.5s-2-.2-2.5.7c-1.4 2.4-4 4-6.9 4-4.4 0-8-3.6-8-8s3.6-8 8-8c2.2 0 4.2.9 5.6 2.4l-3.4 3.4h8V6l-3.1 3.1C25.3 7.2 22.8 6 20 6c-.7 0-1.3.7-1.3 1.3 0 .4.2.7.5.9-.5-.1-.9-.2-1.2-.2z" fill="#00CD68"/>
  <!-- NEWT Text -->
  <text x="42" y="26" font-family="'Inter', 'Helvetica Neue', sans-serif" font-size="18" font-weight="700" fill="currentColor">NEWT</text>
</svg>