<svg width="529" height="67" viewBox="0 0 529 67" fill="none" xmlns="http://www.w3.org/2000/svg"><path d="M410.654 57.594C395.87 57.594 386.102 47.43 386.102 33.834C386.102 20.172 396.068 10.008 410.654 10.008C417.914 10.008 422.6 12.252 424.976 13.77C425.504 14.166 425.636 14.694 425.24 15.288L423.26 18.786C422.864 19.446 422.336 19.512 421.742 19.116C419.96 17.994 416.462 16.344 411.182 16.344C400.358 16.344 393.098 23.274 393.098 33.768C393.098 44.196 400.16 51.258 411.182 51.258C416.528 51.258 419.96 49.674 421.808 48.618C422.468 48.222 422.996 48.354 423.326 48.948L425.24 52.446C425.636 53.04 425.504 53.568 424.712 54.096C422.534 55.416 417.914 57.594 410.654 57.594ZM447.073 26.046C455.059 26.046 460.537 31.656 460.537 40.17V55.878C460.537 56.604 460.075 57 459.415 57H454.993C454.333 57 453.937 56.604 453.937 55.878V41.094C453.937 35.616 450.637 31.986 445.819 31.986C440.341 31.986 437.437 36.342 437.371 40.5V55.878C437.371 56.604 436.975 57 436.249 57H431.893C431.233 57 430.771 56.604 430.771 55.878V10.998C430.771 10.272 431.233 9.876 431.893 9.876H436.183C436.843 9.876 437.305 10.272 437.305 10.998V30.468C439.219 27.96 442.519 26.046 447.073 26.046ZM496.641 26.64C497.367 26.64 497.763 27.036 497.763 27.762V55.878C497.763 56.604 497.367 57 496.641 57H493.011C492.417 57 491.955 56.604 491.955 55.944L491.757 52.182C489.447 55.284 485.817 57.594 480.669 57.594C472.353 57.594 466.017 50.862 466.017 41.82C466.017 32.778 472.419 26.046 480.735 26.046C485.619 26.046 489.249 28.026 491.559 30.666L491.757 27.696C491.823 27.036 492.219 26.64 492.879 26.64H496.641ZM481.989 51.588C487.665 51.588 491.493 47.43 491.493 41.82C491.427 36.21 487.665 32.052 481.989 32.052C476.775 32.052 472.617 36.21 472.617 41.82C472.617 47.43 476.775 51.588 481.989 51.588ZM519.465 57.594C512.733 57.594 508.179 53.634 508.179 46.44V32.118H503.097C502.437 32.118 501.975 31.656 501.975 30.996V27.762C501.975 27.036 502.437 26.64 503.097 26.64H508.311V17.334C508.311 16.608 508.773 16.212 509.433 16.212H513.591C514.317 16.212 514.713 16.608 514.713 17.334V26.64H525.669C526.329 26.64 526.725 27.036 526.725 27.762V30.996C526.725 31.656 526.329 32.118 525.669 32.118H514.713V46.044C514.713 50.07 517.023 51.72 520.785 51.72C522.963 51.72 524.415 50.928 525.405 50.334C526.065 49.938 526.593 50.136 526.923 50.796L528.309 53.766C528.573 54.426 528.441 54.822 527.847 55.284C527.253 55.746 524.481 57.594 519.465 57.594Z" fill="#00CD68"/><path d="M200.055 56.9565H205.361C206.75 56.9565 207.872 55.835 207.872 54.4458V12.4673C207.872 11.0781 206.75 9.95666 205.361 9.95666H197.846C196.457 9.95666 195.335 11.0781 195.335 12.4673V35.9003L171.368 11.1116C170.665 10.3751 169.677 9.95666 168.656 9.95666H163.351C161.961 9.95666 160.84 11.0781 160.84 12.4673V54.4625C160.84 55.8518 161.961 56.9732 163.351 56.9732H170.866C172.255 56.9732 173.376 55.8518 173.376 54.4625V31.0296L197.344 55.8183C198.047 56.5548 199.034 56.9732 200.055 56.9732V56.9565Z" fill="#00CD68"/><path d="M218.283 56.9518H251.472C252.862 56.9518 253.983 55.8304 253.983 54.4411V48.3318C253.983 46.9426 252.862 45.8212 251.472 45.8212H228.057V38.8247H245.581C246.97 38.8247 248.092 37.7033 248.092 36.3141V30.2048C248.092 28.8155 246.97 27.6941 245.581 27.6941H228.057V21.0492H250.803C252.192 21.0492 253.314 19.9277 253.314 18.5385V12.4292C253.314 11.04 252.192 9.91853 250.803 9.91853H218.283C216.76 9.91853 215.521 11.1571 215.521 12.6803V54.1733C215.521 55.6965 216.76 56.9351 218.283 56.9351V56.9518Z" fill="#00CD68"/><path d="M341.454 56.9605H348.969C350.358 56.9605 351.48 55.8391 351.48 54.4498V21.0746H365.187C366.577 21.0746 367.698 19.9532 367.698 18.5639V12.4546C367.698 11.0654 366.577 9.94395 365.187 9.94395H325.303C323.914 9.94395 322.792 11.0654 322.792 12.4546V18.5639C322.792 19.9532 323.914 21.0746 325.303 21.0746H338.944V54.4498C338.944 55.8391 340.065 56.9605 341.454 56.9605Z" fill="#00CD68"/><path d="M296.542 56.9605H303.907C305.313 56.9605 306.534 55.9897 306.836 54.6172L316.393 12.7057C316.711 11.2997 315.639 9.94395 314.2 9.94395H306.735C305.313 9.94395 304.091 10.9482 303.789 12.3375L299.17 34.3142L293.998 12.2705C293.68 10.9147 292.458 9.94395 291.069 9.94395H285.312C283.906 9.94395 282.701 10.9147 282.383 12.2705L277.228 34.3142L272.591 12.3375C272.29 10.9482 271.068 9.94395 269.646 9.94395H262.181C260.725 9.94395 259.653 11.283 259.988 12.7057L269.579 54.6172C269.897 55.9897 271.102 56.9605 272.508 56.9605H279.839C281.228 56.9605 282.433 56.0064 282.768 54.6507L288.19 32.1048L293.613 54.6507C293.931 56.0064 295.153 56.9605 296.542 56.9605Z" fill="#00CD68"/><path d="M113.01 12.4315C110.901 14.0216 108.792 15.4945 106.683 16.8837C106.466 17.0176 106.198 16.9841 106.031 16.7833C94.9171 3.27587 79.4854 -0.0549542 69.7109 0.631296C49.9275 2.02054 29.1399 13.0508 16.4531 31.6967C16.336 31.8808 16.1016 31.9645 15.8841 31.8975C14.4279 31.4289 13.0053 30.91 11.6328 30.3744C10.2604 29.8388 8.97159 31.4958 9.92561 32.6842C12.1517 35.4627 14.7961 38.0571 17.8088 40.3501C18.1101 40.5845 18.0599 41.0364 17.7251 41.2038C13.3735 43.2625 7.86694 44.9698 1.40638 45.3213C-0.183658 45.405 -0.535139 47.5809 0.920997 48.1834C11.5993 52.619 23.5832 52.6692 34.2615 48.3843C34.546 48.2671 34.864 48.2504 35.1653 48.3173C42.9648 50.2757 52.7896 51.8658 63.9366 51.8658C64.1876 51.8658 64.288 52.2005 64.0705 52.3177C58.4802 55.7155 51.7351 58.109 43.9189 58.5442C42.4125 58.6278 41.9773 60.6531 43.3163 61.3561C62.5306 71.4657 84.4731 65.6745 96.8084 51.7653C100.005 48.15 105.294 44.317 110.181 42.0239C114.901 39.915 119.655 37.421 124.425 34.4752C134.618 28.0813 139.538 19.227 141.614 14.3563C142.484 12.3143 141.513 9.93753 139.438 9.11737C134.233 7.05862 123.839 4.71533 113.01 12.4649V12.4315ZM129.647 16.0134C128.274 16.0301 127.153 14.9421 127.119 13.5696C127.103 12.1971 128.191 11.0757 129.563 11.0422C130.936 11.0255 132.057 12.1134 132.09 13.4859C132.107 14.8584 131.019 15.9799 129.647 16.0134Z" fill="#00CD68"/></svg>